<svg xmlns="http://www.w3.org/2000/svg" viewBox="0 0 128 128" width="128" height="128">
  <!-- Background circle -->
  <circle cx="64" cy="64" r="60" fill="#1a1a1a"/>

  <!-- Document icon -->
  <rect x="35" y="30" width="50" height="60" rx="4" fill="none" stroke="#ffffff" stroke-width="3"/>

  <!-- Lines representing text -->
  <line x1="42" y1="45" x2="78" y2="45" stroke="#ffffff" stroke-width="2" stroke-linecap="round"/>
  <line x1="42" y1="55" x2="78" y2="55" stroke="#ffffff" stroke-width="2" stroke-linecap="round"/>
  <line x1="42" y1="65" x2="70" y2="65" stroke="#ffffff" stroke-width="2" stroke-linecap="round"/>

  <!-- Upload arrow -->
  <path d="M95 75 L95 95 Q95 100 90 100 L85 100 L85 90 L75 90 L75 100 L38 100 Q33 100 33 95 L33 75" fill="none" stroke="#0366d6" stroke-width="3" stroke-linecap="round" stroke-linejoin="round"/>
  <polygon points="64,50 52,70 60,70 60,90 68,90 68,70 76,70" fill="#0366d6"/>
</svg>
